<svg xmlns="http://www.w3.org/2000/svg" viewBox="0 0 20 20" shape-rendering="crispEdges">
  <!-- black outline -->
  <rect x="7" y="1" width="6" height="1" fill="#000000"/>
  <rect x="6" y="2" width="8" height="1" fill="#000000"/>
  <rect x="8" y="3" width="4" height="1" fill="#000000"/>
  <rect x="8" y="4" width="1" height="1" fill="#000000"/>
  <rect x="11" y="4" width="1" height="1" fill="#000000"/>
  <rect x="7" y="5" width="1" height="1" fill="#000000"/>
  <rect x="12" y="5" width="1" height="1" fill="#000000"/>
  <rect x="6" y="6" width="1" height="1" fill="#000000"/>
  <rect x="13" y="6" width="1" height="1" fill="#000000"/>
  <rect x="5" y="7" width="1" height="1" fill="#000000"/>
  <rect x="14" y="7" width="1" height="1" fill="#000000"/>
  <rect x="4" y="8" width="1" height="1" fill="#000000"/>
  <rect x="15" y="8" width="1" height="1" fill="#000000"/>
  <rect x="3" y="9" width="1" height="1" fill="#000000"/>
  <rect x="16" y="9" width="1" height="1" fill="#000000"/>
  <rect x="2" y="10" width="1" height="1" fill="#000000"/>
  <rect x="17" y="10" width="1" height="1" fill="#000000"/>
  <rect x="2" y="11" width="1" height="1" fill="#000000"/>
  <rect x="17" y="11" width="1" height="1" fill="#000000"/>
  <rect x="2" y="12" width="1" height="1" fill="#000000"/>
  <rect x="17" y="12" width="1" height="1" fill="#000000"/>
  <rect x="2" y="13" width="1" height="1" fill="#000000"/>
  <rect x="17" y="13" width="1" height="1" fill="#000000"/>
  <rect x="2" y="14" width="1" height="1" fill="#000000"/>
  <rect x="17" y="14" width="1" height="1" fill="#000000"/>
  <rect x="2" y="15" width="16" height="1" fill="#000000"/>
  <rect x="3" y="16" width="14" height="1" fill="#000000"/>

  <!-- upper: empty glass (pale mint, not liquid) -->
  <rect x="9" y="3" width="2" height="1" fill="#C8F0D8"/>
  <rect x="9" y="4" width="1" height="1" fill="#F5F7E9"/>
  <rect x="10" y="4" width="1" height="1" fill="#C8F0D8"/>
  <rect x="9" y="5" width="2" height="1" fill="#B8E8CC"/>
  <rect x="8" y="6" width="4" height="1" fill="#B0E4C6"/>
  <rect x="7" y="7" width="6" height="1" fill="#A8E0C0"/>
  <rect x="6" y="8" width="8" height="1" fill="#A0DCBA"/>
  <rect x="5" y="9" width="10" height="1" fill="#98D8B4"/>
  <rect x="4" y="10" width="12" height="1" fill="#90D4AE"/>

  <!-- liquid surface row (half-full) -->
  <rect x="4" y="11" width="12" height="1" fill="#5BC97E"/>

  <!-- liquid below -->
  <rect x="3" y="12" width="14" height="1" fill="#45B76C"/>
  <rect x="3" y="13" width="14" height="1" fill="#35A55D"/>
  <rect x="3" y="14" width="14" height="1" fill="#28934F"/>

  <!-- highlights (upper empty glass) -->
  <rect x="7" y="8" width="1" height="1" fill="#F5F7E9"/>
  <rect x="6" y="9" width="1" height="1" fill="#F5F7E9"/>
  <rect x="6" y="10" width="1" height="1" fill="#E8FCEF"/>
</svg>
